<svg xmlns="http://www.w3.org/2000/svg" viewBox="0 0 512 512">
  <rect width="512" height="512" rx="160" fill="#5c3b24" />
  <circle cx="256" cy="256" r="184" fill="#f4e7d8" />
  <path
    d="M222 144c-22 10-33 30-33 60v61l-19-30c-12-18-31-21-47-8-15 12-17 33-6 49l80 117c11 15 28 24 47 24h24c18 0 36-9 47-24l80-117c11-16 9-37-6-49-16-13-35-10-47 8l-19 30v-61c0-30-11-50-33-60-20-9-43-5-59 12l-10 11-10-11c-16-17-39-21-59-12Z"
    fill="#6c4422"
  />
  <path
    d="M223 179c8-4 18-3 25 4l8 8v128h-29V204c0-10-2-18-4-25Zm66 0c-2 7-4 15-4 25v115h-29V191l8-8c7-7 17-8 25-4Z"
    fill="#fff6ee"
  />
</svg>
